# xmcd
#
# Track frame offsets:
#	150
#	15472
#	30866
#	42395
#	58278
#	72228
#	85941
#	95893
#	111304
#	131846
#	143685
#	159379
#	176165
#	188463
#	209041
#	221548
#
# Disc length: 3223 seconds
#
# Revision: 1
# Processed by: cddbd v1.5.2PL0 Copyright (c) Steve Scherf et al.
# Submitted via: audiograbber 1.83.01
#
DISCID=e90c9510
DTITLE=Peter Wesley - Roll On Country
DYEAR=1900
DGENRE=
TTITLE0=Tennesse River Run
TTITLE1=Trail of Tears
TTITLE2=Roll on Big Mama
TTITLE3=Tonight I Climbed the Wall
TTITLE4=Sundown in Nashville
TTITLE5=Smokey Places
TTITLE6=Honk if You Honkey Tonk
TTITLE7=Turn it On, Turn it Up
TTITLE8=Jim Reeves Medley
TTITLE9=It's a Little Too Late
TTITLE10=Nothing On But The Radio
TTITLE11=Vertical Expression
TTITLE12=Diggin Up Bones
TTITLE13=Copperhead Road
TTITLE14=Jukebox Junkie
TTITLE15=Let Us Try
EXTD=
EXTT0=
EXTT1=
EXTT2=
EXTT3=
EXTT4=
EXTT5=
EXTT6=
EXTT7=
EXTT8=
EXTT9=
EXTT10=
EXTT11=
EXTT12=
EXTT13=
EXTT14=
EXTT15=
PLAYORDER=
